<?xml version="1.0" standalone="no"?>
<!DOCTYPE svg PUBLIC "-//W3C//DTD SVG 20010904//EN"
 "http://www.w3.org/TR/2001/REC-SVG-20010904/DTD/svg10.dtd">
<svg version="1.0" xmlns="http://www.w3.org/2000/svg"
 width="1024.000000pt" height="768.000000pt" viewBox="0 0 1024.000000 768.000000"
 preserveAspectRatio="xMidYMid meet">

<g transform="translate(0.000000,768.000000) scale(0.100000,-0.100000)"
fill="#000000" stroke="none">
<path d="M0 6005 l0 -1674 83 6 c69 5 89 3 117 -13 19 -10 44 -19 55 -21 11
-2 38 -11 60 -21 36 -15 87 -17 485 -18 322 -1 497 -6 635 -18 105 -10 251
-19 325 -22 225 -9 449 -31 467 -46 9 -7 19 -12 22 -10 3 2 7 -3 8 -10 3 -14
-53 -49 -179 -113 -86 -43 -109 -41 -57 4 56 49 33 54 -127 32 -137 -20 -384
-67 -392 -75 -10 -11 75 -24 118 -19 27 3 56 3 65 -1 15 -5 14 -9 -7 -31 -12
-14 -30 -25 -38 -25 -9 0 -26 -23 -40 -52 -14 -29 -41 -71 -61 -93 -51 -57
-69 -86 -69 -112 0 -27 2 -28 42 -7 60 31 96 0 83 -74 -6 -37 -19 -59 -104
-183 -56 -83 -117 -212 -124 -266 -3 -24 -4 -43 -2 -43 4 0 62 124 70 150 4
14 16 31 26 38 11 7 19 20 19 28 0 8 5 14 10 14 6 0 10 6 10 13 0 6 16 30 35
51 19 22 35 43 35 47 0 4 23 13 50 20 51 13 120 68 120 96 0 7 7 16 16 20 9 3
27 17 40 29 12 13 32 24 42 24 10 0 30 9 43 20 13 11 29 23 34 28 6 5 17 6 24
4 8 -3 20 3 27 13 7 9 17 14 23 10 6 -3 11 1 11 9 0 19 11 20 29 4 10 -11 14
-9 22 5 7 12 17 16 30 12 24 -8 60 20 52 41 -3 8 1 14 11 14 9 0 16 -7 16 -17
0 -15 2 -15 19 1 15 14 24 15 40 6 17 -8 21 -8 21 3 0 18 104 30 233 28 48 -1
87 2 87 6 0 10 148 9 208 -2 28 -5 42 -13 43 -24 1 -9 5 0 9 19 4 19 8 -69 9
-200 3 -307 4 -329 21 -341 8 -6 42 -8 74 -5 32 4 81 6 108 6 l49 0 -3 309
c-2 191 1 303 6 293 5 -9 13 -19 17 -22 17 -12 195 -249 227 -302 9 -16 20
-28 24 -28 4 0 8 -4 8 -9 0 -18 55 -100 67 -101 14 0 42 38 70 95 11 22 37 69
58 105 21 36 51 90 67 120 33 63 65 100 54 64 -6 -19 -3 -21 21 -16 16 3 33
12 40 21 6 9 14 14 16 11 3 -3 8 -115 11 -250 3 -135 5 -246 5 -247 1 -2 10
-3 20 -3 23 0 56 -30 44 -40 -12 -11 -126 -40 -218 -56 -74 -12 -396 -35 -695
-50 -69 -3 -136 -8 -150 -9 -14 -2 -37 -4 -52 -4 -19 -1 -32 -9 -42 -28 -12
-23 -16 -25 -21 -11 -6 15 -11 15 -44 3 -35 -12 -92 -20 -316 -45 -49 -6 -164
-20 -254 -31 -202 -25 -451 -48 -588 -56 -118 -6 -118 -7 -87 -100 18 -54 51
-97 40 -53 -3 14 -3 19 0 13 8 -18 22 -16 27 5 4 14 5 14 6 1 2 -28 128 -39
177 -15 16 8 72 17 124 21 52 4 97 11 100 15 3 4 27 10 54 12 30 4 43 2 35 -3
-19 -12 -9 -11 69 5 71 15 173 28 365 47 89 9 117 16 117 26 0 11 8 13 28 9
15 -4 49 -2 77 3 31 6 56 6 67 0 12 -6 18 -6 18 1 0 5 9 10 20 10 13 0 18 5
14 15 -4 8 -2 15 2 15 9 0 70 -188 139 -425 10 -33 20 -66 22 -72 4 -9 -9 -12
-45 -12 -27 1 -54 -1 -59 -4 -19 -12 -430 -68 -533 -73 -58 -3 -116 -8 -130
-11 l-25 -6 30 -13 c52 -23 -3 -16 -90 12 -210 66 -377 143 -487 224 -59 44
-174 164 -191 200 -46 103 -55 240 -22 342 20 62 57 151 65 158 3 3 18 25 34
50 16 25 51 73 77 107 54 68 59 88 29 98 -39 12 -161 -47 -175 -85 -2 -8 -15
-26 -27 -41 -28 -30 -45 -56 -58 -88 -9 -20 -12 -21 -27 -10 -15 13 -15 12 -3
-7 12 -19 9 -33 -18 -111 -18 -48 -32 -107 -32 -129 0 -51 -5 -56 -38 -38 -42
21 -58 17 -94 -25 -28 -33 -43 -41 -93 -51 -53 -11 -72 -10 -165 10 -58 12
-121 24 -140 26 -42 6 -557 102 -632 118 -17 4 -18 -44 -18 -888 l0 -891 80 9
c44 5 80 13 80 18 0 4 10 8 23 8 12 0 33 7 45 16 15 10 37 15 61 12 30 -3 37
0 33 11 -4 10 -1 13 12 8 29 -11 59 11 52 39 -4 14 -2 24 4 24 5 0 10 -16 10
-35 0 -32 2 -35 30 -35 16 0 55 7 87 15 32 9 74 15 93 14 19 -1 43 2 53 6 9 4
26 5 37 2 11 -3 20 -1 20 4 0 5 18 9 40 9 22 0 40 4 40 8 0 5 18 14 41 21 23
7 38 15 35 18 -3 4 -45 8 -92 9 -47 1 -88 5 -92 9 -8 8 19 25 30 19 4 -3 13
-2 20 2 8 5 6 10 -8 15 -13 5 -7 8 24 8 23 1 42 -3 42 -9 0 -5 8 -10 17 -10
13 0 14 3 5 12 -7 7 -12 15 -12 19 0 9 82 29 119 29 17 0 31 5 31 11 0 5 5 7
11 4 14 -10 59 3 59 17 0 7 -19 9 -57 6 -32 -3 -48 -4 -35 -1 12 2 22 10 22
18 0 11 7 11 38 2 20 -6 40 -15 43 -20 3 -4 27 -3 52 3 26 5 50 9 54 8 5 -1
18 1 31 6 29 10 29 30 0 23 -64 -16 -111 -20 -104 -8 6 9 -6 11 -46 7 -49 -5
-50 -5 -13 4 22 5 59 7 82 3 34 -4 44 -2 49 11 7 18 84 23 84 6 0 -16 38 -12
47 5 6 10 40 18 108 25 55 6 154 17 220 24 66 8 167 20 225 26 58 6 138 15
178 21 40 5 91 9 112 9 22 0 40 3 40 8 0 4 31 8 69 10 37 1 90 7 117 13 27 5
59 10 72 10 13 -1 32 4 42 9 11 6 20 6 22 1 2 -5 25 -7 51 -4 27 3 44 9 37 13
-6 3 10 6 36 5 47 -2 169 17 181 28 11 11 -29 21 -45 10 -11 -6 -28 -5 -55 4
-34 12 -42 12 -64 -2 -20 -14 -27 -14 -40 -3 -13 10 -17 10 -20 0 -3 -6 -9
-10 -14 -7 -4 3 -71 -1 -148 -10 -166 -18 -161 -18 -161 -5 0 6 18 10 40 10
29 0 40 4 40 15 0 12 15 15 73 17 125 2 153 5 166 12 6 4 18 2 26 -4 11 -9 18
-10 29 -1 7 6 22 9 32 5 15 -5 16 -4 4 5 -8 5 -12 12 -10 14 6 5 198 30 250
33 19 1 42 4 50 7 8 2 31 9 50 15 19 6 68 12 108 14 56 2 71 5 67 16 -8 21 5
60 22 66 14 6 14 4 0 -18 -9 -13 -14 -26 -11 -29 9 -8 94 2 116 14 35 19 77
28 83 18 4 -5 13 -9 21 -9 8 0 12 5 8 11 -3 6 7 4 23 -4 16 -9 61 -19 101 -22
l72 -8 14 35 c8 19 22 65 31 104 29 129 35 145 48 137 24 -15 91 -9 110 11 25
27 22 17 -25 -95 -23 -57 -44 -95 -48 -89 -4 7 -7 -1 -7 -17 1 -15 -1 -35 -4
-43 -5 -19 64 -24 166 -13 68 8 69 9 88 48 11 22 23 49 27 60 4 11 18 45 31
74 13 30 23 58 22 62 -1 4 4 10 12 13 12 4 14 0 9 -18 -4 -19 0 -28 20 -41 28
-18 66 -12 66 11 0 10 12 14 40 14 28 0 40 4 40 14 0 9 15 15 44 17 24 2 42 1
40 -3 -3 -5 0 -16 5 -25 9 -16 10 -16 11 4 0 12 4 24 9 28 12 7 24 -14 45 -76
14 -39 14 -45 1 -55 -23 -17 -18 -34 11 -34 14 0 32 -7 40 -15 10 -10 25 -13
42 -9 19 5 24 3 17 -4 -21 -22 -403 -79 -790 -117 -93 -9 -218 -26 -277 -36
-235 -42 -507 -168 -606 -280 -31 -35 -33 -42 -47 -177 -8 -77 -12 -148 -9
-157 4 -8 0 -23 -8 -33 -33 -38 -27 -103 14 -146 10 -11 18 -23 18 -27 0 -12
119 -99 135 -99 8 0 29 -9 47 -20 18 -11 40 -20 49 -20 9 0 22 -7 29 -15 7 -9
15 -13 18 -10 3 3 10 1 16 -4 6 -5 28 -11 50 -14 21 -3 43 -10 49 -16 6 -6 28
-11 48 -11 21 0 40 -4 43 -9 3 -5 26 -12 51 -15 24 -4 47 -11 50 -17 4 -5 9
-8 13 -5 12 7 136 -14 142 -24 3 -5 75 -23 160 -41 169 -35 314 -66 345 -75
11 -3 34 -7 50 -10 17 -3 62 -14 102 -24 40 -11 97 -23 128 -26 31 -4 58 -11
61 -16 3 -4 9 -6 13 -3 5 2 23 0 42 -6 19 -5 66 -14 104 -19 74 -11 110 -17
110 -21 0 -1 11 -3 25 -4 67 -7 126 -19 136 -27 7 -5 29 -8 50 -7 46 1 104 -6
136 -17 24 -9 27 -9 128 -13 49 -2 59 -5 40 -11 -19 -6 -13 -8 29 -9 54 -1 88
-6 251 -37 47 -9 96 -18 110 -19 14 -2 57 -8 95 -14 39 -6 86 -13 105 -16 19
-2 103 -13 185 -24 83 -11 168 -22 190 -25 139 -15 384 -50 465 -66 52 -10
149 -26 215 -36 139 -19 183 -32 262 -75 46 -26 69 -32 113 -31 30 0 66 -3 80
-8 14 -5 38 -11 53 -14 15 -4 25 -11 22 -16 -3 -6 1 -10 11 -10 13 0 15 -6 10
-36 -10 -48 -43 -84 -78 -84 -16 0 -42 -7 -57 -15 -16 -8 -31 -11 -35 -8 -3 4
-6 1 -6 -4 0 -7 -32 -14 -75 -18 -41 -4 -75 -11 -75 -16 0 -5 -28 -8 -62 -7
-47 1 -74 -4 -105 -21 -24 -12 -43 -24 -43 -26 0 -3 767 -5 1705 -5 l1705 0 0
480 0 479 -46 -19 c-25 -11 -54 -20 -65 -20 -10 0 -28 -9 -40 -21 -15 -15 -31
-20 -57 -18 -21 2 -48 -4 -62 -13 -14 -9 -50 -19 -81 -23 -45 -5 -58 -10 -62
-26 -4 -13 -14 -19 -34 -19 -16 0 -33 -4 -38 -9 -15 -14 -141 -42 -158 -35 -9
3 -23 -3 -34 -15 -14 -16 -29 -21 -70 -21 -29 0 -53 -4 -53 -8 0 -11 -68 -32
-85 -26 -12 5 -130 -22 -149 -34 -5 -3 -1 -9 10 -13 17 -7 17 -8 2 -8 -10 -1
-18 -5 -18 -9 0 -11 -67 -35 -78 -28 -12 7 -85 -15 -94 -29 -5 -7 -14 -6 -28
3 -16 10 -20 10 -20 -2 0 -8 -6 -16 -13 -19 -19 -7 -253 2 -322 13 -33 6 -95
10 -138 10 -48 0 -134 12 -225 31 -302 63 -492 100 -682 134 -107 20 -238 44
-290 55 -254 51 -484 89 -570 95 -52 3 -140 14 -195 24 -273 51 -330 60 -462
70 -164 13 -569 74 -628 95 -22 7 -89 19 -150 26 -147 16 -312 47 -410 75 -44
12 -111 26 -150 30 -82 8 -195 32 -239 50 -17 7 -71 20 -121 30 -49 9 -121 23
-160 31 -189 41 -324 65 -441 79 -71 9 -147 20 -169 26 -22 5 -74 18 -115 28
-41 10 -106 30 -145 45 -38 15 -95 37 -125 48 -111 41 -145 57 -145 69 0 15
142 68 199 75 22 3 44 8 50 12 6 3 28 9 51 13 207 38 254 49 280 63 17 9 46
18 65 21 19 4 78 15 130 25 86 17 177 31 400 60 128 17 202 30 285 49 44 10
98 22 120 25 22 4 54 11 70 16 17 5 64 19 105 31 41 12 82 24 90 27 8 3 23 6
32 7 31 4 113 28 123 36 5 5 17 9 26 9 9 0 46 14 82 31 63 29 87 55 72 79 -7
11 71 48 194 89 81 28 207 53 331 66 97 11 103 13 98 40 -4 21 -3 23 13 14 11
-5 19 -14 19 -19 0 -6 18 -10 40 -10 64 0 46 -16 -32 -29 -84 -14 -169 -37
-213 -56 -16 -7 -37 -16 -45 -18 -8 -3 -1 -6 15 -6 17 -1 118 21 225 49 107
27 274 70 370 95 96 24 185 47 197 50 14 3 29 -2 41 -15 15 -16 36 -21 109
-26 59 -3 93 -1 98 5 3 6 -14 61 -38 123 -110 278 -132 343 -114 331 6 -3 44
-6 84 -5 49 2 73 -1 73 -9 0 -8 4 -8 15 1 8 7 15 9 15 5 0 -4 6 -2 14 4 24 20
28 -15 24 -222 -1 -105 1 -198 6 -205 4 -7 16 -10 25 -7 21 6 71 -30 71 -51 0
-24 35 -12 38 14 3 17 10 22 32 22 46 0 60 10 61 44 2 30 2 30 6 3 7 -46 31
-51 229 -50 194 1 225 7 221 45 -2 21 4 23 112 35 63 7 135 17 160 22 39 7 30
9 -64 10 -60 1 -134 4 -163 8 l-53 6 3 81 3 81 58 0 c31 0 57 2 57 5 0 3 -26
13 -57 21 l-58 15 -1 270 c0 149 -4 276 -8 282 -8 13 -53 15 -143 6 l-60 -7
-7 -140 c-3 -78 -7 -142 -9 -143 -1 -1 -53 -5 -114 -9 l-112 -8 -3 154 -3 154
-99 3 c-55 1 -104 -2 -109 -7 -5 -5 -12 -77 -16 -160 -6 -145 -13 -180 -30
-152 -6 10 -10 9 -15 -4 -3 -9 -10 -13 -16 -10 -5 3 -10 0 -11 -7 0 -7 -4 -4
-9 7 -7 17 -9 17 -9 3 -1 -14 -10 -18 -44 -18 -24 0 -48 -5 -54 -11 -8 -8 -18
-6 -37 6 -25 17 -26 16 -27 -1 0 -17 -58 90 -59 109 0 5 -6 23 -14 40 -8 18
-29 68 -47 112 -17 44 -35 83 -38 87 -4 4 -49 5 -102 2 l-95 -7 -53 -156 c-30
-86 -65 -180 -79 -209 -23 -48 -26 -51 -39 -35 -13 17 -14 16 -9 -5 7 -35 -3
-52 -31 -52 -13 0 -22 4 -18 10 3 5 12 7 19 4 7 -3 16 2 19 10 9 23 -2 22
-193 -19 -36 -8 -100 -17 -142 -21 -46 -4 -82 -12 -89 -20 -7 -8 -21 -11 -35
-8 -18 5 -29 0 -44 -17 l-19 -24 -1 110 c0 61 -3 168 -7 239 l-6 129 -83 -6
c-69 -5 -85 -3 -92 9 -5 9 -18 14 -31 12 l-23 -3 2 -237 c0 -134 -3 -239 -9
-242 -5 -3 -11 3 -14 14 -3 11 0 20 6 20 7 0 4 5 -6 11 -10 6 -26 7 -35 3 -9
-4 -46 -8 -82 -10 -87 -4 -133 -12 -142 -27 -9 -14 -12 71 -8 273 l2 145 -121
0 -121 0 0 -194 c0 -153 -3 -192 -12 -184 -7 5 -17 9 -23 8 -104 -12 -173 -18
-187 -16 -10 1 -18 -3 -18 -10 0 -27 -16 8 -85 183 l-71 182 -90 -3 c-51 -1
-94 -7 -100 -14 -6 -7 -37 -79 -69 -162 -32 -82 -65 -168 -75 -190 -9 -22 -21
-51 -26 -64 -9 -22 -18 -25 -70 -27 -32 -2 -71 -6 -86 -8 l-27 -5 16 52 c8 29
41 131 73 227 31 96 55 178 53 183 -2 4 -41 7 -86 7 -79 0 -131 13 -97 23 21
7 207 33 395 57 88 11 174 23 190 26 97 16 294 47 315 49 14 1 32 4 40 8 8 3
29 6 45 6 17 -1 50 4 75 10 205 46 233 50 407 57 101 4 183 10 183 14 0 4 35
10 78 14 100 9 207 33 256 58 63 32 131 107 151 167 35 107 0 234 -82 297 -23
18 -48 34 -55 36 -9 3 -3 16 19 41 31 36 73 114 73 136 0 6 4 11 9 11 6 0 9
-12 8 -27 -1 -19 3 -28 16 -31 15 -3 17 5 17 62 0 64 0 65 -25 60 -18 -3 -25
0 -25 11 0 29 -49 113 -77 133 -103 72 -196 91 -463 92 l-205 2 -5 -170 c-3
-94 -7 -173 -10 -175 -3 -3 -44 -7 -93 -8 l-87 -4 0 46 c0 137 -91 239 -244
274 -60 14 -105 16 -286 10 -118 -4 -219 -9 -223 -12 -5 -3 -7 -80 -5 -172 l3
-166 -30 -3 c-45 -3 -105 -8 -107 -7 -1 0 -4 81 -7 180 l-6 180 -87 3 -86 3
-35 -58 c-19 -32 -48 -85 -65 -118 -17 -33 -43 -78 -59 -100 -35 -47 -51 -50
-163 -35 -41 6 -102 14 -135 17 -53 5 -58 4 -47 -10 7 -8 36 -21 65 -27 29 -6
66 -18 84 -26 18 -8 45 -13 60 -12 16 1 34 -1 41 -6 7 -4 12 -2 12 3 0 6 4 11
10 11 6 0 5 -10 -2 -25 -12 -26 -34 -36 -24 -10 3 8 1 15 -4 15 -6 0 -10 -4
-10 -10 0 -5 -6 -8 -12 -5 -12 3 -138 13 -242 19 -37 2 -42 6 -71 59 -18 32
-41 67 -52 80 -12 12 -48 65 -82 118 -68 106 -72 109 -177 109 l-54 0 -1 -57
c0 -32 -4 -67 -9 -78 -6 -17 -9 -14 -15 18 -4 20 -13 37 -20 37 -8 0 -36 -21
-62 -47 -118 -115 -168 -138 -206 -95 -25 28 -21 49 18 86 53 51 47 63 -32 71
-82 7 -210 31 -267 49 -53 17 -205 50 -326 71 -200 34 -307 65 -295 86 4 5 17
9 31 9 15 0 24 6 24 15 0 9 10 15 26 15 14 0 34 4 44 10 17 9 18 22 13 167
l-4 158 43 31 c24 17 68 37 98 44 30 7 87 23 127 36 87 29 108 30 126 3 13
-18 12 -28 -10 -92 -14 -40 -29 -77 -35 -84 -5 -6 -12 -58 -15 -115 l-6 -103
34 -14 c36 -15 65 -23 144 -41 53 -12 228 -6 327 11 93 16 184 14 211 -4 42
-27 100 -1 135 61 l22 39 -38 11 c-20 5 -73 18 -117 28 -44 9 -89 22 -100 29
-11 7 -49 22 -85 35 -36 12 -74 26 -85 31 -11 4 -38 15 -60 24 -21 9 -47 23
-57 32 -24 22 -24 91 -1 109 20 15 120 18 155 5 13 -5 50 -17 83 -26 73 -21
325 -192 308 -209 -4 -3 0 -6 9 -6 31 0 87 37 122 80 20 25 45 57 57 71 11 14
28 37 37 51 32 49 133 169 153 181 10 6 19 16 19 21 0 5 7 14 15 20 9 6 17 25
18 41 2 30 2 30 -95 55 -59 15 -98 30 -98 37 0 7 -11 15 -25 19 -26 6 -32 18
-15 29 6 4 8 10 5 15 -11 18 74 48 158 55 48 4 89 10 91 14 3 3 6 246 8 538 3
518 2 533 -17 546 -11 9 -25 12 -35 6 -38 -20 -120 -29 -263 -29 -200 0 -195
5 -217 -222 -5 -57 -15 -141 -20 -188 -6 -47 -13 -104 -15 -128 -2 -24 -8 -49
-14 -56 -6 -7 -16 -51 -21 -97 -6 -46 -15 -104 -20 -129 -5 -25 -12 -62 -15
-82 -4 -24 -11 -38 -20 -38 -18 0 -21 -76 -4 -82 8 -3 3 -17 -12 -41 -17 -26
-31 -37 -50 -37 -14 0 -30 -5 -36 -11 -12 -12 -122 -4 -124 9 -1 4 -3 25 -4
47 -1 22 -8 94 -14 160 -27 272 -34 358 -43 530 -5 99 -10 209 -12 245 -2 36
-5 190 -7 343 -2 182 -7 277 -14 277 -6 0 -15 10 -20 23 -7 15 -18 21 -35 19
-52 -5 -65 -19 -67 -75 -3 -119 -22 -398 -32 -482 -20 -173 -33 -352 -41 -570
-5 -121 -13 -292 -19 -380 l-10 -159 -36 -33 c-20 -18 -42 -33 -49 -33 -8 0
-27 -7 -42 -15 -16 -8 -36 -15 -46 -15 -9 0 -39 -10 -66 -23 -40 -19 -67 -23
-128 -23 l-77 1 -21 35 c-24 42 -24 49 -26 760 -1 512 7 1076 14 1089 7 10 19
214 19 294 0 45 3 67 11 67 7 0 25 18 42 39 22 30 38 41 67 45 28 5 37 11 37
26 0 17 7 20 40 20 29 0 40 4 40 15 0 13 -118 15 -1000 15 l-1000 0 0 -1675z
m1354 1390 c26 -18 55 -37 65 -42 1 -1 0 -7 -4 -13 -6 -9 -10 -9 -16 1 -5 9
-11 5 -20 -17 -18 -41 -39 -64 -60 -64 -10 0 -23 -8 -28 -17 -6 -10 -11 -12
-11 -5 0 6 -12 12 -26 12 -14 0 -23 -4 -20 -9 3 -5 -5 -11 -18 -13 -17 -3 -23
0 -22 11 1 11 -9 17 -33 19 -19 2 -41 10 -49 18 -8 9 -25 22 -38 31 l-24 15
23 19 c14 12 17 18 8 19 -19 0 6 30 25 30 8 0 14 4 14 9 0 13 50 19 136 17 52
-1 77 -6 98 -21z m-171 -883 c12 -10 24 -24 26 -32 6 -23 21 -90 32 -141 13
-65 -3 -491 -19 -497 -7 -2 -12 -16 -12 -30 0 -32 -7 -43 -37 -59 -27 -15 -79
-17 -88 -3 -3 6 -14 10 -24 10 -23 0 -69 88 -74 140 -2 19 -9 45 -15 57 -8 14
-12 88 -12 218 0 210 2 219 57 291 21 29 52 43 106 49 10 1 20 5 24 9 9 9 13
8 36 -12z m-65 -1134 c4 25 27 30 36 6 8 -22 9 -264 0 -308 -4 -25 -12 -36
-24 -36 -10 0 -21 -8 -24 -17 -6 -14 -9 -12 -22 12 -18 35 -28 329 -12 359 10
18 12 18 27 -10 15 -28 16 -28 19 -6z m237 -410 c39 -17 51 -71 31 -137 -13
-45 -14 -57 -2 -80 16 -29 56 -69 56 -55 1 5 7 -2 15 -16 7 -14 24 -27 37 -30
16 -4 24 -14 26 -34 4 -31 -3 -31 -87 5 -24 10 -48 19 -54 19 -5 0 -25 11 -43
25 -18 14 -36 25 -41 25 -9 0 -60 61 -80 94 -7 12 -12 48 -13 80 0 52 4 64 27
88 30 31 81 38 128 16z m245 -394 c0 -14 -3 -15 -17 -3 -10 7 -20 15 -22 16
-2 2 5 3 17 3 14 0 22 -6 22 -16z m-458 -16 c22 -35 -3 -54 -67 -50 -62 4 -73
14 -51 46 13 21 24 26 60 26 34 0 47 -5 58 -22z m4389 -261 c27 -21 40 -56 38
-105 -3 -115 -32 -140 -169 -149 l-90 -6 0 137 0 136 103 0 c64 -1 108 -5 118
-13z m-986 -27 c81 -13 109 -43 103 -111 -7 -74 -70 -146 -94 -107 -5 7 -2 9
8 5 9 -3 23 2 32 12 18 20 22 46 5 35 -19 -12 -213 -4 -221 9 -10 15 -10 128
0 143 15 24 77 29 167 14z m-1715 -244 c0 -30 -1 -31 -47 -33 -27 0 -107 -4
-180 -8 -72 -4 -140 -5 -149 -1 -16 6 -16 8 -1 23 22 22 170 48 283 49 l94 1
0 -31z m1729 -2 c2 -2 -7 -4 -22 -4 -14 0 -29 5 -32 10 -6 10 42 4 54 -6z
m499 -243 c-3 -233 -3 -236 -24 -233 -11 1 -34 -2 -50 -9 -16 -6 -40 -13 -53
-15 -19 -4 -22 -2 -16 13 65 154 20 334 -99 398 -20 11 -36 22 -36 25 1 3 16
16 34 30 30 23 42 25 140 26 l106 0 -2 -235z m-1699 123 c16 -37 9 -39 -11 -3
-9 16 -14 29 -9 29 4 0 13 -12 20 -26z m774 -186 c4 -106 2 -213 -2 -238 -7
-38 -9 -41 -11 -15 -1 17 -4 23 -7 14 -3 -12 -16 -17 -44 -17 -22 -1 -46 -6
-53 -11 -11 -9 -15 31 -21 210 -4 122 -3 225 2 229 4 5 31 11 58 13 28 2 55 4
61 5 8 1 13 -58 17 -190z m1442 146 c37 -24 60 -80 60 -147 0 -51 -3 -62 -27
-82 -32 -27 -101 -44 -215 -52 l-83 -6 0 152 0 151 120 0 c95 0 126 -4 145
-16z m-935 -24 c55 -28 84 -86 78 -157 -9 -109 -67 -146 -249 -162 l-78 -7 -6
51 c-3 27 -5 102 -3 165 l3 115 50 6 c107 13 165 10 205 -11z m708 -427 c-10
-2 -26 -2 -35 0 -10 3 -2 5 17 5 19 0 27 -2 18 -5z m-1435 -110 c-7 -2 -19 -2
-25 0 -7 3 -2 5 12 5 14 0 19 -2 13 -5z m-46 -9 c-3 -3 -12 -4 -19 -1 -8 3 -5
6 6 6 11 1 17 -2 13 -5z m-232 -309 c-26 -83 -55 -181 -67 -220 -20 -70 -38
-104 -38 -72 0 20 -68 296 -95 387 -4 11 5 15 35 17 22 0 40 -3 40 -9 0 -5 7
-2 16 6 24 24 54 38 70 32 8 -3 14 -1 14 4 0 9 63 19 68 10 1 -3 -18 -73 -43
-155z m-292 106 l-83 -6 -56 -160 c-31 -88 -63 -179 -71 -202 -15 -41 -33 -50
-33 -15 0 15 2 15 10 2 5 -8 10 -10 10 -4 0 6 3 25 6 42 l6 30 -36 -12 c-32
-10 -36 -15 -36 -45 0 -65 -17 -17 -54 154 -40 187 -43 213 -23 198 6 -6 23
-9 37 -8 14 1 68 6 120 10 52 4 102 11 110 16 8 5 51 8 95 7 l80 -2 -82 -5z
m2957 -115 c0 -7 3 -34 6 -60 6 -42 5 -46 -15 -46 -11 0 -21 -5 -21 -12 0 -9
-3 -9 -11 -1 -8 8 -6 24 5 57 9 26 16 53 16 61 0 8 5 15 10 15 6 0 10 -6 10
-14z m-2093 -145 c-2 -16 -11 -40 -20 -53 l-16 -23 6 23 c3 12 9 22 13 22 4 0
8 6 7 13 -1 24 3 47 8 47 3 0 3 -13 2 -29z m993 -41 c0 -5 -7 -7 -15 -4 -8 4
-15 8 -15 10 0 2 7 4 15 4 8 0 15 -4 15 -10z m2060 -15 c0 -15 -5 -25 -12 -24
-28 3 -38 -2 -38 -18 0 -13 3 -14 12 -5 15 15 32 16 23 2 -3 -5 -2 -10 3 -10
15 0 20 -98 8 -135 l-12 -33 -109 1 -110 2 -3 113 c-1 61 1 113 5 113 4 1 58
5 118 9 61 3 111 7 113 8 1 1 2 -9 2 -23z m-2130 -15 c0 -5 -5 -10 -11 -10 -5
0 -7 5 -4 10 3 6 8 10 11 10 2 0 4 -4 4 -10z m-173 -42 c-3 -8 -6 -5 -6 6 -1
11 2 17 5 13 3 -3 4 -12 1 -19z m993 -108 c-32 -104 -51 -150 -60 -145 -9 6
-2 44 13 63 12 15 26 16 -166 -7 -89 -11 -183 -21 -209 -24 l-48 -5 0 77 c1
71 2 74 15 51 13 -22 14 -23 15 -5 0 16 2 17 9 6 8 -12 18 -12 63 -3 64 14
350 23 342 11 -3 -5 0 -9 6 -9 6 0 8 10 4 25 -5 20 -3 24 10 19 10 -4 16 -1
16 7 0 7 2 10 5 8 2 -3 -5 -34 -15 -69z m-2883 28 c-3 -8 -6 -5 -6 6 -1 11 2
17 5 13 3 -3 4 -12 1 -19z m23 -28 c-7 -17 -14 -29 -16 -27 -2 2 1 18 7 36 6
18 14 30 17 27 2 -3 -1 -19 -8 -36z m3208 -7 c-10 -2 -26 -2 -35 0 -10 3 -2 5
17 5 19 0 27 -2 18 -5z m-102 -12 c-5 -8 68 -6 161 4 41 4 44 3 73 -40 16 -24
30 -45 30 -47 0 -2 -13 -3 -29 -2 -15 1 -41 -4 -57 -12 -34 -15 -167 -59 -209
-69 -16 -4 -38 -14 -48 -23 -18 -16 -18 -15 -11 13 4 17 11 38 15 47 5 9 9 23
9 31 0 8 8 32 17 53 9 22 16 42 15 47 -1 4 7 7 19 7 11 0 18 -4 15 -9z m-2321
-57 c-8 -20 -15 -39 -15 -41 0 -3 -7 -3 -15 1 -8 3 -40 1 -71 -5 -31 -6 -58
-8 -61 -5 -3 2 0 21 7 40 9 30 15 35 33 31 12 -3 35 -2 51 3 16 4 42 9 58 10
l28 2 -15 -36z m1368 -17 c3 -18 1 -36 -3 -40 -13 -14 -286 -22 -294 -9 -4 7
-4 26 -1 44 6 30 9 33 43 33 20 -1 78 2 127 5 115 7 122 5 128 -33z m-3833 -7
c0 -5 -4 -10 -10 -10 -5 0 -10 5 -10 10 0 6 5 10 10 10 6 0 10 -4 10 -10z
m5677 -26 c-3 -3 -12 -4 -19 -1 -8 3 -5 6 6 6 11 1 17 -2 13 -5z m-5774 -50
c5 -9 27 -14 62 -14 52 0 90 -19 43 -21 -58 -4 -86 -9 -132 -23 -27 -8 -53
-13 -57 -11 -8 6 13 55 24 55 4 0 7 9 7 21 0 17 4 19 23 13 12 -3 26 -13 30
-20z m190 12 c27 -21 20 -28 -13 -11 -16 9 -30 18 -30 20 0 10 25 4 43 -9z
m3167 -19 l41 -2 -4 -63 c-2 -34 -8 -61 -13 -60 -5 2 -7 18 -6 37 3 20 0 31
-6 27 -6 -3 -13 0 -16 6 -9 19 0 -54 9 -74 4 -10 3 -18 -2 -18 -14 0 -33 47
-27 65 4 10 2 15 -6 13 -7 -2 -18 17 -26 42 -17 56 -17 55 0 41 8 -7 33 -13
56 -14z m-3195 -7 c3 -5 -1 -10 -9 -10 -9 0 -16 5 -16 10 0 6 4 10 9 10 6 0
13 -4 16 -10z m2820 0 c4 -6 -7 -10 -24 -10 -17 0 -31 5 -31 10 0 6 11 10 24
10 14 0 28 -4 31 -10z m-899 -114 c10 -43 12 -62 4 -70 -8 -8 -9 -6 -5 5 4 10
0 19 -9 22 -10 4 -16 1 -16 -7 0 -7 -6 -13 -12 -13 -39 -2 -126 -17 -147 -24
-21 -9 -23 -7 -16 13 3 13 10 39 15 58 4 19 15 53 23 75 15 40 16 40 17 10 1
-28 2 -29 10 -7 5 12 12 22 15 22 4 0 4 -10 0 -22 -5 -20 -4 -21 5 -5 7 11 23
17 45 17 29 0 35 4 36 23 1 18 2 17 11 -8 5 -16 16 -57 24 -89z m791 108 c-3
-3 -12 -4 -19 -1 -8 3 -5 6 6 6 11 1 17 -2 13 -5z m-47 -45 c0 -5 -7 -9 -15
-9 -8 0 -15 7 -15 15 0 9 6 12 15 9 8 -4 15 -10 15 -15z m-1922 -6 c-10 -2
-26 -2 -35 0 -10 3 -2 5 17 5 19 0 27 -2 18 -5z m-613 -13 c3 -5 -1 -10 -10
-10 -9 0 -13 5 -10 10 3 6 8 10 10 10 2 0 7 -4 10 -10z m-55 -10 c0 -5 -7 -11
-15 -11 -18 -2 -25 -4 -45 -12 -30 -13 -226 -55 -286 -62 -74 -8 -92 7 -40 32
20 9 36 20 36 25 0 4 15 8 33 9 17 0 64 7 102 14 85 16 215 19 215 5z m893 -7
c-7 -2 -21 -2 -30 0 -10 3 -4 5 12 5 17 0 24 -2 18 -5z m450 -10 c-7 -2 -19
-2 -25 0 -7 3 -2 5 12 5 14 0 19 -2 13 -5z m-156 -15 c-53 -5 -111 -5 -145 0
-48 8 -34 10 88 9 l145 0 -88 -9z m-209 -15 c-10 -2 -28 -2 -40 0 -13 2 -5 4
17 4 22 1 32 -1 23 -4z m407 -2 c8 -15 -8 -21 -97 -36 -85 -15 -229 -18 -283
-6 -23 5 -11 9 55 16 78 7 162 13 232 14 15 1 29 5 33 11 8 13 52 13 60 1z
m1485 -31 c0 -5 -5 -10 -11 -10 -5 0 -7 5 -4 10 3 6 8 10 11 10 2 0 4 -4 4
-10z m280 -10 c-19 -13 -30 -13 -30 0 0 6 10 10 23 10 18 0 19 -2 7 -10z
m-2357 -17 c-7 -2 -21 -2 -30 0 -10 3 -4 5 12 5 17 0 24 -2 18 -5z m625 -84
c7 -12 11 -24 8 -27 -6 -6 -35 27 -36 41 0 14 15 7 28 -14z m345 14 c-13 -2
-35 -2 -50 0 -16 2 -5 4 22 4 28 0 40 -2 28 -4z m-433 -13 c0 -5 -9 -10 -21
-10 -11 0 -17 5 -14 10 3 6 13 10 21 10 8 0 14 -4 14 -10z m40 0 c0 -5 -4 -10
-9 -10 -6 0 -13 5 -16 10 -3 6 1 10 9 10 9 0 16 -4 16 -10z m80 -61 c0 -6 -4
-7 -10 -4 -5 3 -10 11 -10 16 0 6 5 7 10 4 6 -3 10 -11 10 -16z m1623 -56 c-7
-2 -19 -2 -25 0 -7 3 -2 5 12 5 14 0 19 -2 13 -5z m-276 -59 c-3 -3 -12 -4
-19 -1 -8 3 -5 6 6 6 11 1 17 -2 13 -5z m-1132 -14 c-3 -5 -14 -10 -23 -10
-15 0 -15 2 -2 10 20 13 33 13 25 0z m1032 -6 c-3 -3 -12 -4 -19 -1 -8 3 -5 6
6 6 11 1 17 -2 13 -5z m-2060 -21 c5 -14 -73 -31 -172 -37 -38 -2 -99 -9 -135
-15 -96 -16 -202 -14 -226 4 -10 8 -17 15 -14 15 3 1 48 4 100 7 52 3 98 9
101 14 3 5 43 7 90 6 52 -3 97 1 119 9 42 15 132 14 137 -3z m1918 -9 c-38 -7
-90 -18 -115 -23 -25 -6 -62 -10 -83 -11 -21 0 -45 -7 -54 -16 -10 -10 -25
-13 -44 -9 -18 4 -29 2 -29 -4 0 -6 -12 -11 -26 -11 -14 0 -33 -4 -43 -10 -10
-5 -61 -11 -112 -14 -131 -6 -332 -45 -391 -77 -11 -6 -22 -8 -25 -5 -16 16
240 88 432 121 50 9 126 22 170 29 44 8 121 20 170 26 50 6 97 13 105 15 8 1
38 3 65 3 l50 0 -70 -14z m-1064 -44 c-13 -11 -28 -20 -35 -20 -6 1 0 10 13
20 13 11 28 20 35 20 6 -1 0 -10 -13 -20z m-1444 -36 c-3 -3 -12 -4 -19 -1 -8
3 -5 6 6 6 11 1 17 -2 13 -5z m-94 -11 c-13 -2 -33 -2 -45 0 -13 2 -3 4 22 4
25 0 35 -2 23 -4z m-198 -23 c-22 -5 -74 -11 -115 -13 l-75 -6 85 13 c98 15
172 19 105 6z m1805 -20 c-12 -23 -56 -47 -66 -37 -9 9 16 37 41 47 32 14 36
11 25 -10z m-2153 -26 c-3 -3 -12 -4 -19 -1 -8 3 -5 6 6 6 11 1 17 -2 13 -5z
m2068 -34 c3 -5 -3 -10 -14 -10 -12 0 -21 5 -21 10 0 6 6 10 14 10 8 0 18 -4
21 -10z m142 4 c-3 -3 -12 -4 -19 -1 -8 3 -5 6 6 6 11 1 17 -2 13 -5z m-2287
-43 c0 -15 -9 -20 -40 -23 -22 -2 -40 0 -40 4 0 5 8 8 18 8 9 0 26 7 36 15 25
19 26 19 26 -4z m-407 -8 c-7 -2 -19 -2 -25 0 -7 3 -2 5 12 5 14 0 19 -2 13
-5z m250 -12 c-5 -19 -83 -48 -83 -31 0 5 -8 11 -17 13 -10 3 -2 5 17 6 28 1
56 11 87 30 0 1 -1 -8 -4 -18z m-180 -28 c-7 -2 -19 -2 -25 0 -7 3 -2 5 12 5
14 0 19 -2 13 -5z m-143 -17 c0 -2 -7 -6 -15 -10 -8 -3 -15 -1 -15 4 0 6 7 10
15 10 8 0 15 -2 15 -4z m240 -71 c0 -8 -6 -15 -14 -15 -17 0 -28 14 -19 24 12
12 33 6 33 -9z m-80 -25 c0 -5 -7 -10 -16 -10 -8 0 -12 5 -9 10 3 6 10 10 16
10 5 0 9 -4 9 -10z m9114 -1212 c-4 -13 -7 -33 -5 -45 1 -13 -2 -23 -8 -23 -6
0 -11 6 -11 14 0 8 -7 16 -14 18 -11 2 -8 11 12 35 30 35 37 35 26 1z m-56 13
c9 -5 -2 -10 -33 -13 -25 -3 -55 -14 -67 -24 -21 -19 -21 -19 -9 3 20 38 75
56 109 34z m220 -45 c4 -17 2 -17 -19 -3 -26 19 -55 8 -69 -26 -7 -18 -9 -19
-9 -4 -1 10 4 27 10 38 14 27 82 23 87 -5z m208 -11 c-8 -40 -1 -44 25 -13 11
11 22 18 26 15 3 -4 -2 -15 -11 -26 -11 -12 -14 -21 -7 -26 6 -3 11 -14 11
-23 0 -13 -3 -12 -16 6 -18 27 -31 28 -37 5 -3 -11 -5 -6 -7 12 -1 17 -3 42
-5 58 -3 19 1 27 12 27 12 0 14 -7 9 -35z m-131 -5 c3 -5 -4 -10 -15 -10 -14
0 -20 -5 -17 -12 2 -7 1 -22 -4 -33 -6 -16 -8 -12 -8 17 -1 32 7 44 31 47 4 1
10 -3 13 -9z m76 0 c36 -20 15 -80 -28 -80 -4 0 2 7 14 15 28 19 20 57 -11 53
-16 -2 -21 -10 -21 -31 1 -26 0 -27 -12 -11 -17 23 -16 29 3 48 18 19 28 20
55 6z m-141 -29 c0 -4 -11 -6 -25 -3 -14 2 -25 6 -25 8 0 2 11 4 25 4 14 0 25
-4 25 -9z"/>
<path d="M1478 4633 c7 -3 16 -2 19 1 4 3 -2 6 -13 5 -11 0 -14 -3 -6 -6z"/>
<path d="M7160 2746 c0 -2 9 -6 20 -9 11 -3 20 -1 20 4 0 5 -9 9 -20 9 -11 0
-20 -2 -20 -4z"/>
<path d="M7180 2586 c0 -2 9 -6 20 -9 11 -3 20 -1 20 4 0 5 -9 9 -20 9 -11 0
-20 -2 -20 -4z"/>
<path d="M3230 2302 c0 -12 4 -22 9 -22 5 0 12 -10 14 -22 4 -22 4 -21 5 2 1
14 -5 34 -13 44 -15 19 -15 19 -15 -2z"/>
<path d="M2708 2263 c7 -3 16 -2 19 1 4 3 -2 6 -13 5 -11 0 -14 -3 -6 -6z"/>
<path d="M1898 1913 c7 -3 16 -2 19 1 4 3 -2 6 -13 5 -11 0 -14 -3 -6 -6z"/>
<path d="M3515 5171 c-21 -9 -58 -48 -140 -146 -28 -33 -61 -72 -75 -86 -14
-14 -34 -38 -45 -54 -11 -16 -35 -43 -52 -61 -18 -18 -33 -35 -33 -39 0 -3
-17 -23 -37 -43 -52 -53 -103 -110 -103 -117 0 -4 23 -5 50 -4 44 3 54 -1 83
-28 20 -19 62 -41 112 -57 44 -15 88 -31 97 -36 10 -6 23 -10 29 -10 7 0 35
-11 63 -24 98 -47 123 -55 154 -53 18 1 32 3 32 4 0 5 -145 92 -208 124 -59
32 -100 70 -107 100 -6 24 -3 27 40 40 26 8 51 19 55 25 17 20 19 206 3 237
-21 42 -4 79 68 148 40 38 59 64 55 74 -6 17 -12 17 -41 6z m-267 -468 c-2
-22 -8 -28 -27 -28 -31 0 -52 31 -31 45 8 5 25 10 38 10 20 0 23 -4 20 -27z"/>
<path d="M6102 4452 c-64 -23 -115 -62 -163 -126 -83 -108 -80 -222 8 -323 38
-44 108 -78 200 -98 161 -36 210 -54 237 -86 45 -53 32 -131 -28 -168 -41 -26
-195 -44 -182 -23 4 7 1 12 -9 12 -9 0 -14 -4 -11 -9 7 -10 -81 -6 -149 8 -27
5 -53 7 -56 3 -3 -4 -4 -46 -1 -94 5 -100 -10 -90 158 -109 135 -15 259 -2
339 35 99 45 172 133 190 227 l6 34 72 2 c40 1 85 7 100 12 16 6 50 11 77 11
27 0 55 6 62 13 30 28 66 44 112 49 30 4 52 12 58 22 6 10 22 16 43 16 19 0
35 5 35 10 0 7 6 8 17 2 11 -7 32 -5 62 5 45 15 110 29 184 40 20 3 37 9 37
15 0 5 9 7 20 3 14 -4 27 1 44 19 13 14 28 26 35 26 6 0 11 5 11 10 0 6 -7 10
-15 10 -8 0 -15 -4 -15 -9 0 -5 -24 -11 -52 -14 -100 -11 -122 -17 -145 -39
-16 -15 -23 -17 -23 -7 0 11 -2 11 -9 1 -5 -8 -17 -11 -33 -7 -17 4 -29 2 -35
-7 -4 -7 -19 -14 -33 -16 -14 -1 -54 -7 -90 -12 -36 -5 -121 -17 -190 -26 -69
-9 -150 -20 -180 -25 -30 -5 -76 -12 -101 -15 l-46 -6 -16 44 c-43 112 -130
164 -342 202 -49 9 -105 21 -122 27 -40 13 -73 53 -73 89 0 43 42 111 80 131
49 26 176 26 260 -1 101 -32 100 -33 100 59 l0 79 -32 6 c-18 3 -103 8 -188
11 -136 5 -162 3 -208 -13z"/>
<path d="M3625 4390 c4 -6 11 -8 16 -5 14 9 11 15 -7 15 -8 0 -12 -5 -9 -10z"/>
<path d="M3700 4365 c7 -9 15 -13 17 -11 7 7 -7 26 -19 26 -6 0 -6 -6 2 -15z"/>
<path d="M3190 4181 c0 -16 22 -26 57 -26 25 0 29 2 21 13 -6 7 -18 10 -25 7
-8 -2 -23 0 -34 5 -12 7 -19 7 -19 1z"/>
<path d="M7641 3984 c0 -11 3 -14 6 -6 3 7 2 16 -1 19 -3 4 -6 -2 -5 -13z"/>
<path d="M960 3914 c0 -8 5 -12 10 -9 6 3 10 10 10 16 0 5 -4 9 -10 9 -5 0
-10 -7 -10 -16z"/>
<path d="M5518 3413 c6 -2 18 -2 25 0 6 3 1 5 -13 5 -14 0 -19 -2 -12 -5z"/>
<path d="M2088 3073 c7 -3 16 -2 19 1 4 3 -2 6 -13 5 -11 0 -14 -3 -6 -6z"/>
<path d="M1350 3036 l0 -34 43 5 c23 3 56 11 72 19 17 7 44 15 60 17 17 3 -7
5 -53 4 -50 0 -88 5 -95 12 -19 19 -27 12 -27 -23z"/>
<path d="M1618 3043 c12 -2 32 -2 45 0 12 2 2 4 -23 4 -25 0 -35 -2 -22 -4z"/>
<path d="M1920 2830 c0 -6 -33 -10 -79 -10 -46 0 -81 -4 -83 -10 -2 -7 -14 -7
-36 1 -23 8 -41 8 -60 1 -41 -16 -208 -22 -222 -9 -8 9 -9 7 -4 -7 5 -13 4
-17 -4 -12 -30 18 -7 -20 42 -69 51 -52 74 -64 90 -47 4 4 42 8 84 9 165 5
272 18 272 34 0 5 28 9 62 9 47 0 59 3 50 12 -8 8 -49 8 -164 -2 -84 -7 -183
-12 -220 -11 -54 1 -71 -2 -86 -17 -17 -17 -20 -17 -47 -2 -16 9 -30 21 -33
28 -4 14 11 17 148 32 58 6 136 18 174 26 38 8 86 14 107 14 40 0 89 17 89 32
0 4 -18 8 -40 8 -22 0 -40 -4 -40 -10z"/>
<path d="M2012 2829 c2 -6 8 -10 13 -10 5 0 11 4 13 10 2 6 -4 11 -13 11 -9 0
-15 -5 -13 -11z"/>
<path d="M2094 2735 c-18 -14 -17 -14 14 -15 22 0 32 5 32 15 0 19 -21 19 -46
0z"/>
<path d="M8805 2680 c-99 -4 -283 -13 -410 -19 -126 -7 -248 -13 -271 -14
l-41 -1 -12 -87 c-7 -48 -18 -92 -24 -97 -7 -6 -31 -15 -53 -21 -37 -10 -43
-15 -49 -47 -4 -21 -2 -41 4 -47 15 -15 142 -13 261 6 183 28 315 37 731 49
296 8 463 8 617 0 222 -11 267 -21 267 -57 0 -14 6 -19 19 -17 11 2 15 -1 11
-7 -4 -7 6 -11 27 -11 18 0 106 -2 196 -6 l162 -5 0 189 0 189 -332 6 c-391 8
-852 7 -1103 -3z"/>
<path d="M1560 2645 c0 -16 16 -20 24 -6 3 5 -1 11 -9 15 -9 3 -15 0 -15 -9z"/>
<path d="M1768 2650 c-93 -9 -128 -17 -128 -30 0 -12 26 -14 33 -2 2 4 2 1 1
-5 -2 -9 11 -13 41 -13 25 0 45 5 45 10 0 6 33 10 80 10 44 0 80 4 80 9 0 9
-56 33 -69 30 -3 -1 -41 -5 -83 -9z"/>
<path d="M7637 2653 c-4 -3 -7 -15 -7 -25 0 -17 5 -19 33 -13 43 9 58 25 24
25 -15 0 -27 5 -27 10 0 11 -13 13 -23 3z"/>
<path d="M1644 2585 c11 -8 25 -15 30 -15 6 0 2 7 -8 15 -11 8 -25 15 -30 15
-6 0 -2 -7 8 -15z"/>
<path d="M1751 2544 c0 -11 3 -14 6 -6 3 7 2 16 -1 19 -3 4 -6 -2 -5 -13z"/>
<path d="M1790 2521 c0 -10 24 -21 43 -21 7 0 3 7 -7 15 -22 17 -36 19 -36 6z"/>
<path d="M6765 2490 c-3 -5 1 -10 10 -10 9 0 13 5 10 10 -3 6 -8 10 -10 10 -2
0 -7 -4 -10 -10z"/>
<path d="M2108 2453 c7 -3 16 -2 19 1 4 3 -2 6 -13 5 -11 0 -14 -3 -6 -6z"/>
<path d="M2048 2423 c6 -2 18 -2 25 0 6 3 1 5 -13 5 -14 0 -19 -2 -12 -5z"/>
<path d="M7228 2393 c7 -3 16 -2 19 1 4 3 -2 6 -13 5 -11 0 -14 -3 -6 -6z"/>
<path d="M4047 2340 c-3 -11 0 -23 5 -27 7 -3 8 -1 4 5 -4 7 -2 12 3 12 6 0
11 7 11 15 0 22 -17 18 -23 -5z"/>
<path d="M4360 2340 c0 -20 -2 -22 -10 -10 -13 20 -13 8 0 -26 10 -24 13 -26
26 -13 13 14 13 19 -1 45 -15 29 -15 29 -15 4z"/>
<path d="M4110 2280 c0 -29 4 -40 15 -40 11 0 15 11 15 40 0 29 -4 40 -15 40
-11 0 -15 -11 -15 -40z"/>
<path d="M4240 2300 c0 -17 7 -20 45 -20 31 0 45 4 45 13 0 9 -10 12 -30 9
-18 -3 -30 0 -30 7 0 6 -7 11 -15 11 -8 0 -15 -9 -15 -20z"/>
<path d="M4027 2280 c-3 -11 -1 -20 4 -20 5 0 9 2 9 4 0 2 3 11 6 20 3 9 2 16
-4 16 -5 0 -12 -9 -15 -20z"/>
<path d="M4056 2272 c-13 -25 -13 -28 2 -28 12 0 17 9 17 28 0 15 -1 28 -2 28
-1 0 -9 -13 -17 -28z"/>
<path d="M6889 2250 c-7 -5 0 -15 19 -29 22 -16 45 -21 89 -21 55 0 183 -37
138 -40 -50 -4 -110 3 -147 16 -52 18 -84 19 -70 2 9 -12 14 -34 24 -93 2 -11
8 -24 13 -28 6 -6 6 -10 -2 -14 -18 -7 -16 -23 2 -23 8 0 15 -5 15 -11 0 -5
-5 -7 -10 -4 -6 3 -31 3 -57 -1 -62 -9 -36 -19 77 -28 153 -13 175 -25 35 -20
-291 12 -515 64 -566 133 -12 17 -26 28 -31 25 -13 -8 2 -73 26 -113 14 -24
17 -36 8 -39 -33 -11 0 -52 58 -71 49 -17 212 -50 295 -61 180 -23 737 -43
762 -27 6 4 84 11 174 16 90 6 181 15 201 21 20 6 40 10 45 8 4 -1 33 2 63 6
49 7 82 15 180 42 36 10 50 23 50 48 0 13 13 32 30 44 17 13 30 31 30 40 0 10
5 23 12 30 6 6 8 15 4 19 -4 4 -10 3 -14 -3 -19 -30 -166 -79 -261 -88 -35 -4
-67 -8 -70 -11 -24 -14 -501 -41 -501 -28 0 5 17 11 38 12 20 1 55 6 77 10 30
7 10 9 -85 10 -100 1 -121 4 -105 13 11 7 48 11 81 10 67 -3 80 7 68 52 -4 17
1 25 18 34 22 11 22 11 -4 6 -17 -4 -28 -2 -28 5 0 11 17 15 58 11 12 -1 22 3
22 9 0 6 -71 12 -197 15 -192 4 -279 11 -287 25 -2 3 17 6 42 6 35 0 47 4 47
15 0 20 -37 28 -143 29 -86 1 -153 17 -172 41 -7 9 -36 9 -51 0z m1407 -246
c-4 -9 -9 -15 -11 -12 -3 3 -3 13 1 22 4 9 9 15 11 12 3 -3 3 -13 -1 -22z
m-983 -21 c-7 -2 -19 -2 -25 0 -7 3 -2 5 12 5 14 0 19 -2 13 -5z m75 0 c-10
-2 -26 -2 -35 0 -10 3 -2 5 17 5 19 0 27 -2 18 -5z m712 -17 c0 -11 -19 -15
-25 -6 -3 5 1 10 9 10 9 0 16 -2 16 -4z m-907 -13 c-7 -2 -21 -2 -30 0 -10 3
-4 5 12 5 17 0 24 -2 18 -5z m52 -3 c3 -5 -1 -10 -9 -10 -9 0 -16 5 -16 10 0
6 4 10 9 10 6 0 13 -4 16 -10z m188 -7 c-13 -2 -35 -2 -50 0 -16 2 -5 4 22 4
28 0 40 -2 28 -4z"/>
<path d="M4228 2233 c6 -2 18 -2 25 0 6 3 1 5 -13 5 -14 0 -19 -2 -12 -5z"/>
<path d="M4013 2223 c9 -2 23 -2 30 0 6 3 -1 5 -18 5 -16 0 -22 -2 -12 -5z"/>
<path d="M4243 2223 c-24 -2 -43 -8 -43 -13 0 -9 43 -5 110 10 33 8 33 8 5 7
-16 0 -49 -2 -72 -4z"/>
<path d="M3670 2210 c0 -5 5 -10 10 -10 6 0 10 5 10 10 0 6 -4 10 -10 10 -5 0
-10 -4 -10 -10z"/>
<path d="M4095 2190 c-13 -6 -1 -7 35 -3 30 3 57 7 59 9 9 8 -75 2 -94 -6z"/>
<path d="M7336 2171 c13 -13 24 -16 36 -10 9 5 29 9 45 9 22 0 25 2 13 10 -8
5 -37 10 -64 10 -49 0 -49 0 -30 -19z"/>
<path d="M2785 1990 c3 -5 8 -10 11 -10 2 0 4 5 4 10 0 6 -5 10 -11 10 -5 0
-7 -4 -4 -10z"/>
<path d="M7695 1980 c-4 -7 3 -8 22 -4 38 9 42 14 10 14 -14 0 -29 -5 -32 -10z"/>
<path d="M2811 1971 c-9 -6 -10 -11 -2 -15 15 -10 53 3 46 15 -8 11 -26 11
-44 0z"/>
<path d="M2760 1889 c-25 -4 -80 -8 -122 -8 -51 -1 -78 -5 -78 -12 0 -8 20
-10 68 -6 37 4 109 9 160 13 58 4 89 10 80 15 -15 10 -45 10 -108 -2z"/>
<path d="M2895 1890 c3 -5 12 -7 20 -3 21 7 19 13 -6 13 -11 0 -18 -4 -14 -10z"/>
<path d="M2480 1870 c0 -5 7 -10 15 -10 8 0 15 5 15 10 0 6 -7 10 -15 10 -8 0
-15 -4 -15 -10z"/>
<path d="M2350 1850 c-11 -7 -6 -10 20 -10 26 0 31 3 20 10 -8 5 -17 10 -20
10 -3 0 -12 -5 -20 -10z"/>
<path d="M2250 1840 c20 -13 70 -13 70 0 0 6 -19 10 -42 10 -32 0 -39 -3 -28
-10z"/>
<path d="M2000 1820 c0 -5 9 -10 19 -10 11 0 23 5 26 10 4 6 -5 10 -19 10 -14
0 -26 -4 -26 -10z"/>
<path d="M1848 1793 c7 -3 16 -2 19 1 4 3 -2 6 -13 5 -11 0 -14 -3 -6 -6z"/>
<path d="M1440 1750 c0 -5 24 -10 53 -10 37 0 48 3 37 10 -20 13 -90 13 -90 0z"/>
<path d="M1280 1724 c0 -11 6 -14 23 -8 47 14 53 23 15 24 -28 0 -38 -4 -38
-16z"/>
<path d="M1368 1733 c7 -3 16 -2 19 1 4 3 -2 6 -13 5 -11 0 -14 -3 -6 -6z"/>
<path d="M1225 1720 c-3 -5 3 -10 15 -10 12 0 18 5 15 10 -3 6 -10 10 -15 10
-5 0 -12 -4 -15 -10z"/>
<path d="M0 1312 c0 -21 4 -23 23 -18 12 4 48 10 79 13 98 10 89 28 -13 28
-87 0 -89 0 -89 -23z"/>
<path d="M0 1231 c0 -30 2 -31 40 -31 29 0 40 4 40 15 0 11 11 15 40 15 22 0
40 5 40 10 0 6 -8 10 -19 10 -10 0 -46 3 -80 6 l-61 7 0 -32z"/>
<path d="M186 1205 c-9 -24 36 -40 65 -24 l24 14 -32 3 c-18 2 -33 7 -33 13 0
15 -17 10 -24 -6z"/>
<path d="M0 520 l0 -520 1762 0 c969 0 1759 2 1757 4 -7 7 -179 46 -201 46
-22 0 -122 27 -148 40 -8 4 -40 13 -70 20 -30 7 -79 21 -108 31 -29 11 -73 19
-97 19 -24 0 -59 6 -77 14 -43 18 -140 46 -161 46 -10 0 -17 5 -17 10 0 6 -21
10 -47 10 -49 0 -264 47 -273 60 -3 4 -30 12 -60 18 -30 6 -73 16 -95 22 -22
6 -73 18 -114 26 -41 7 -79 18 -85 24 -5 5 -27 10 -47 10 -21 0 -41 4 -44 10
-3 6 -15 10 -26 10 -10 0 -27 4 -37 9 -39 19 -153 51 -181 51 -17 0 -31 4 -31
9 0 10 -28 16 -150 32 -47 6 -107 17 -135 24 -27 7 -81 19 -120 26 -38 6 -72
15 -75 20 -3 4 -37 12 -75 18 -85 13 -158 32 -167 45 -3 5 -28 11 -54 12 -27
2 -50 8 -52 13 -2 6 -24 11 -48 11 -31 0 -46 5 -51 16 -4 11 -13 14 -30 9 -16
-4 -36 2 -59 15 -21 14 -47 21 -71 19 -54 -3 -113 11 -113 26 0 8 -17 16 -40
20 -22 4 -40 10 -40 14 0 9 -83 46 -135 60 -22 6 -61 11 -87 11 l-48 0 0 40
c0 36 3 40 25 40 15 0 25 -6 25 -14 0 -19 27 -46 46 -46 8 0 14 7 14 15 0 11
11 15 40 15 29 0 40 4 40 15 0 8 7 15 15 15 11 0 15 11 15 40 0 32 -4 40 -18
40 -11 0 -24 -11 -30 -25 -6 -14 -16 -25 -22 -25 -6 0 -16 11 -22 25 -6 14
-18 25 -26 25 -8 0 -23 -11 -34 -25 -11 -14 -24 -25 -29 -25 -5 0 -9 11 -9 25
0 23 -4 25 -40 25 l-40 0 0 -520z"/>
</g>
</svg>
